<?xml version="1.0" encoding="UTF-8" standalone="no"?>
<!DOCTYPE svg PUBLIC "-//W3C//DTD SVG 1.1//EN" "http://www.w3.org/Graphics/SVG/1.1/DTD/svg11.dtd">
<svg width="100%" height="100%" viewBox="0 0 461 436" version="1.1" xmlns="http://www.w3.org/2000/svg" xmlns:xlink="http://www.w3.org/1999/xlink" xml:space="preserve" xmlns:serif="http://www.serif.com/" style="fill-rule:evenodd;clip-rule:evenodd;stroke-linejoin:round;stroke-miterlimit:2;">
    <g transform="matrix(1,0,0,1,-1266.67,-597.154)">
        <g transform="matrix(-4.16667,0,0,4.16667,6015.12,-1878.07)">
            <rect x="1029.08" y="594.053" width="110.55" height="104.52" style="fill:rgb(26,69,134);"/>
        </g>
        <g transform="matrix(4.16667,0,0,4.16667,1643.48,691.192)">
            <path d="M0,66.428C-0.472,67.494 -0.986,67.712 -2.898,67.747C-4.811,67.781 -4.627,66.597 -4.352,65.784C-4.075,64.971 -3.4,63.722 -3.823,61.886C-4.244,60.049 -6.123,53.644 -8.057,50.286C-9.994,46.928 -12.194,47.047 -12.194,47.047C-10.546,47.813 -10.791,49.975 -11.132,50.309C-11.474,50.642 -11.995,50.846 -12.224,52.038C-12.454,53.23 -13.554,59.156 -13.709,60.582C-13.861,62.008 -13.709,63.396 -13.835,65.025C-13.961,66.654 -15.307,67.183 -16.749,67.256C-18.189,67.329 -20.141,66.792 -20.198,65.857C-20.255,64.922 -18.305,63.101 -17.642,60.946C-16.979,58.792 -16.652,54.392 -16.825,51.658C-16.997,48.925 -17.492,47.875 -18.427,47.223C-19.245,46.639 -19.91,45.863 -20.362,44.964C-20.813,44.065 -21.038,43.069 -21.018,42.064C-25.522,43.777 -29.74,48.017 -31.43,48.074C-33.12,48.132 -34.438,47.066 -36.34,46.319C-38.241,45.571 -43.685,45.291 -43.685,45.291C-43.672,48.576 -43.904,51.858 -44.383,55.108C-44.751,57.64 -44.751,60.212 -44.383,62.744C-44.096,64.408 -43.301,65.343 -43.65,66.294C-43.999,67.245 -46.843,67.091 -48.25,66.961C-49.658,66.831 -49.017,64.933 -48.55,63.549C-48.082,62.165 -47.913,58.968 -48.001,57.381C-48.09,55.795 -49.481,54.698 -49.757,52.64C-50.032,50.581 -50.022,44.624 -50.022,44.624L-52.509,44.532C-52.125,47.104 -52.356,50.363 -52.847,53.828C-53.337,57.293 -53.528,61.801 -53.751,64.178C-53.973,66.555 -54.783,67.107 -56.66,67.068C-58.539,67.03 -58.378,65.861 -58.193,65.228C-58.01,64.596 -57.596,64.396 -57.52,63.649C-57.443,62.901 -56.65,61.472 -56.719,59.513C-56.982,56.215 -57.415,52.933 -58.018,49.68C-58.465,47.09 -59.373,44.601 -60.701,42.332C-62.234,39.813 -62.878,37.096 -63.196,35.723C-63.514,34.351 -64.879,33.143 -65.516,29.46C-66.152,25.776 -66.746,19.585 -66.746,19.585C-68.071,19.476 -69.35,19.045 -70.471,18.329C-71.592,17.614 -72.521,16.636 -73.178,15.48C-73.245,15.362 -73.263,15.223 -73.23,15.092C-73.198,14.961 -73.116,14.847 -73.002,14.774C-70.204,12.992 -67.835,14.353 -67.835,14.353C-67.885,13.862 -67.869,13.367 -67.785,12.881C-73.707,9.316 -72.147,1.764 -68.099,-1.103C-67.995,-1.189 -67.863,-1.232 -67.729,-1.225C-67.595,-1.217 -67.468,-1.159 -67.375,-1.062C-67.282,-0.965 -67.229,-0.836 -67.227,-0.702C-67.224,-0.567 -67.273,-0.437 -67.363,-0.337C-70.43,3.731 -68.486,7.951 -67.819,8.445C-67.053,9.009 -66.458,8.737 -65.067,8.35C-63.675,7.962 -61.59,8.2 -61.59,8.2C-58.348,7.276 -56.243,8.698 -54.494,8.691C-52.747,8.683 -51.742,6.816 -51.812,5.298C-51.866,3.178 -52.4,1.097 -53.371,-0.789C-53.413,-0.87 -53.425,-0.964 -53.403,-1.053C-53.382,-1.142 -53.329,-1.22 -53.256,-1.274C-53.182,-1.328 -53.09,-1.353 -52.999,-1.346C-52.908,-1.338 -52.823,-1.299 -52.758,-1.234C-47.936,3.585 -49.308,9.799 -51.812,11.995L-51.6,12.7C-51.6,12.7 -47.564,11.167 -47.116,12.271C-46.667,13.375 -48.875,15.683 -48.875,15.683C-46.959,16.124 -44.129,17.918 -40.089,18.316C-36.049,18.715 -31.809,19.144 -28.022,19.113C-24.235,19.083 -17.365,16.17 -12.371,16.86C-7.376,17.55 -3.317,23.292 -3.4,29.586C-3.485,35.88 -6.367,41.282 -6.367,41.282C-6.191,42.646 -5.428,43.459 -3.957,44.877C-2.485,46.295 -2.424,50.221 -2.09,52.574C-1.708,54.989 -1.172,57.377 -0.488,59.724C0.206,62.192 0.472,65.362 0,66.428" style="fill:white;fill-rule:nonzero;"/>
        </g>
    </g>
</svg>
