<?xml version="1.0" encoding="UTF-8" standalone="no"?>
<!DOCTYPE svg PUBLIC "-//W3C//DTD SVG 1.1//EN" "http://www.w3.org/Graphics/SVG/1.1/DTD/svg11.dtd">
<svg width="100%" height="100%" viewBox="0 0 461 436" version="1.1" xmlns="http://www.w3.org/2000/svg" xmlns:xlink="http://www.w3.org/1999/xlink" xml:space="preserve" xmlns:serif="http://www.serif.com/" style="fill-rule:evenodd;clip-rule:evenodd;stroke-linejoin:round;stroke-miterlimit:2;">
    <g transform="matrix(1,0,0,1,-1266.67,-1092.47)">
        <g transform="matrix(-4.16667,0,0,4.16667,6015.12,-887.442)">
            <rect x="1029.08" y="475.178" width="110.55" height="104.52" style="fill:rgb(80,183,146);"/>
        </g>
        <g transform="matrix(4.16667,0,0,4.16667,1469.75,1226.33)">
            <path d="M0,58.176C1.272,59.403 26.812,48.855 20.647,34.731C20.516,34.43 24.463,33.242 25.427,30.706C25.794,29.743 25.974,28.387 25.974,28.387C25.974,28.387 32.557,32.554 37.03,32.704C38.312,32.746 40.285,31.737 41.407,31.626C41.853,31.582 43.18,31.896 43.18,31.896C43.18,31.896 46.815,27.968 42.843,24.894C40.987,23.457 38.595,22.598 37.003,22.145C36,21.86 34.961,21.736 33.918,21.76C33.918,21.76 32.7,21.865 32.048,21.662C30.028,21.033 28.376,19.497 29.153,18.812C29.496,18.509 31.218,17.779 31.958,16.612C34.803,12.13 39.619,1.217 23.131,-0.998C21.424,-1.227 24.359,3.776 25.046,6.812C25.311,7.984 24.432,9.114 24.238,9.056C24.238,9.056 17.55,3.41 4.668,3.506C-13.466,3.64 -13.885,6.648 -13.885,6.648C-13.885,6.648 -20.022,-0.619 -21.006,2.114C-23.011,7.68 -19.929,10.463 -19.929,10.463C-20.553,11.263 -20.926,12.23 -21.001,13.242L-21.036,13.725C-21.036,13.725 -21.862,15.221 -21.934,16.253C-22.114,18.827 -21.545,21.265 -21.545,21.265C-21.545,21.265 -32.615,21.423 -34.292,29.464C-34.906,32.405 -25.399,32.036 -19.63,30.781C-15.831,29.954 -14.992,28.387 -14.992,28.387C-14.992,28.387 -13.788,29.491 -13.151,29.921C-12.935,30.067 -11.58,30.691 -11.58,30.691C-11.58,30.691 -10.558,31.808 -9.134,32.502C-8.154,32.979 -6.788,33.043 -6.224,33.265C-5.603,33.509 -4.694,34.237 -3.546,34.589C-1.889,35.097 -1.122,34.903 -1.122,34.903C-1.122,34.903 0.796,35.645 1.773,35.711C3.804,35.848 9.431,35.839 11.825,35.829C12.28,35.827 12.541,36.345 12.27,36.71C12.27,36.71 9.426,40.395 8.857,41.763C8.32,43.056 8.02,46.64 8.02,46.64C8.02,46.64 5.965,48.714 5.416,49.364C4.772,50.126 3.86,51.952 3.86,51.952C3.86,51.952 -1.329,56.894 0,58.176" style="fill:white;fill-rule:nonzero;"/>
        </g>
    </g>
</svg>
