<?xml version="1.0" encoding="UTF-8" standalone="no"?>
<!DOCTYPE svg PUBLIC "-//W3C//DTD SVG 1.1//EN" "http://www.w3.org/Graphics/SVG/1.1/DTD/svg11.dtd">
<svg width="100%" height="100%" viewBox="0 0 461 436" version="1.1" xmlns="http://www.w3.org/2000/svg" xmlns:xlink="http://www.w3.org/1999/xlink" xml:space="preserve" xmlns:serif="http://www.serif.com/" style="fill-rule:evenodd;clip-rule:evenodd;stroke-linejoin:round;stroke-miterlimit:2;">
    <g transform="matrix(1,0,0,1,-753.022,-1088.08)">
        <g transform="matrix(-4.16667,0,0,4.16667,4987.83,-896.225)">
            <rect x="905.803" y="476.232" width="110.55" height="104.52" style="fill:rgb(242,135,32);"/>
        </g>
        <g transform="matrix(4.16667,0,0,4.16667,-3021.16,0)">
            <g transform="matrix(1,0,0,1,971.27,324.542)">
                <path d="M0,-20.18C2.13,-21.24 4.57,-25.55 5.19,-27.83C5.59,-29.25 5.78,-30.63 5.78,-31.95C5.78,-39.93 -1.12,-45.73 -10.21,-45.74L-10.98,-45.73C-14.18,-45.62 -18.33,-45.3 -21,-43.69C-25.81,-40.79 -29.44,-35.15 -29.43,-29.92C-29.43,-27.95 -28.93,-26.04 -27.79,-24.34C-26.38,-22.16 -20.47,-18.28 -20.4,-15.66L-20.88,-14.57C-21.7,-13.79 -22.73,-13.49 -23.8,-13.5C-26.05,-13.5 -28.51,-14.77 -30.06,-15.72C-36.46,-19.71 -37.66,-28.05 -42.87,-29.54C-43.73,-29.79 -44.63,-29.91 -45.54,-29.91C-49.49,-29.92 -53.57,-27.7 -55.35,-25.54C-56.12,-24.61 -57.76,-22.87 -57.74,-21.62L-57.61,-21.13L-57.84,-21.03L-57.75,-20.83L-57.56,-20.94L-57.61,-21.13L-53.64,-22.94C-53.65,-22.92 -53.66,-22.9 -53.67,-22.88L-53.47,-22.77L-53.56,-22.97L-53.64,-22.94C-52.56,-24.79 -50.66,-25.9 -48.41,-25.99L-47.67,-26.01C-44.14,-26.04 -42.83,-24.48 -42.22,-22.37C-41.59,-20.28 -41.5,-17.64 -40.19,-15.22C-39.15,-13.31 -38.93,-12.1 -37.19,-11.1C-31.62,-7.94 -33.55,-9.11 -29.93,-7.87C-28.94,-7.52 -27.89,-7.49 -27.07,-7.45L-25.48,-6.77L-25.51,-6.58L-25.96,-6.08C-26.69,-5.44 -28.27,-4.24 -29.78,-4.03C-31.13,-3.84 -33.13,-3.56 -34.96,-3.56C-36.06,-3.56 -37.1,-3.66 -37.92,-3.96C-40.33,-4.83 -41.36,-6.69 -42.6,-8.98C-44.07,-11.72 -45.53,-16.6 -49.41,-16.56C-50.53,-16.56 -51.88,-16.17 -53.52,-15.19C-54.02,-14.93 -57.67,-11.91 -57.58,-10.88L-57.55,-10.73L-56.91,-10.24C-55.93,-10.16 -54.08,-12.79 -51.5,-12.91L-51.44,-12.91C-49.49,-12.84 -48.08,-9.58 -47.61,-8.26C-45.18,-1.12 -46.96,1.84 -38.29,3.22C-37.32,3.37 -36.4,3.44 -35.52,3.44C-31.96,3.44 -28.93,2.36 -25.28,1.16C-24.27,0.86 -21.84,-1.39 -20.77,-1.44L-20.38,-1.28L-20.25,-0.86L-20.27,-0.62C-20.63,1.49 -22.44,3.3 -23.81,5.37C-24.54,6.44 -27.1,9.02 -28.25,9.71C-29.79,10.63 -31.68,10.79 -33.66,10.79C-34.81,10.79 -35.99,10.74 -37.17,10.74C-38.57,10.74 -39.97,10.82 -41.27,11.16C-44.11,11.89 -45.82,13.79 -45.81,15.75C-45.81,17.06 -45.06,18.45 -43.26,19.61L-43.33,19.6L-43.35,19.82L-43.23,19.63C-43.24,19.62 -43.25,19.62 -43.26,19.61L-41.71,19.8L-41.73,19.86L-41.6,20.04L-41.57,19.82L-41.71,19.8L-41.57,19.4C-41.56,18.75 -41.99,17.63 -42,16.67C-42.02,15.96 -41.7,15.26 -40.81,15.05L-40.74,15.26L-40.8,15.05C-40.5,14.98 -38.71,15.06 -36.47,14.92L-35.92,14.91C-34.09,14.91 -32.27,15.48 -32.18,15.48L-31.53,15.49C-26.75,15.47 -25.61,14.53 -21.9,11.29C-21.5,10.95 -20.03,8.65 -18.5,6.49C-16.92,4.32 -15.41,2.24 -14.29,2.16L-13.96,2.25L-13.29,3.46C-13.31,4.92 -14.86,6.82 -15.27,7.44C-16.41,9.05 -21.33,15.38 -21.31,19.3C-21.31,20.35 -20.98,21.19 -20.15,21.77C-18.7,22.8 -17.22,23.49 -15.18,23.5C-13.84,23.5 -12.24,23.2 -10.26,22.46L-10.3,22.51L-10.12,22.64L-10.2,22.44C-10.22,22.45 -10.24,22.46 -10.26,22.46L-7.9,19.43L-7.74,19.48L-7.56,19.35L-7.74,19.22L-7.9,19.43L-8.47,19.25C-9.85,19.24 -12.54,20.39 -14.31,20.4L-15.56,20.05L-16.08,18.81L-16.07,18.62C-15.82,14.79 -11.6,10.79 -9.81,8.3C-9.31,7.61 -8.87,6.33 -8.51,5.24L-8.04,3.81L-7.48,3.07L-7.28,3.14L-7.27,3.15C-5.76,4.7 -6.03,6.17 -4.15,7.65C0.41,11.32 2.96,10.85 4.63,15.67C5.01,16.78 5.18,17.66 5.18,18.39C5.17,20.89 3.14,21.49 0.67,23.05C-0.06,23.5 -1.69,23.54 -3.2,23.66L-5.16,23.91L-5.85,24.3L-5.85,24.33C-5.77,25.15 -3.77,25.59 -1.58,25.56C0.73,25.57 3.24,25.18 3.64,24.98C5.38,24.16 6.35,23.59 7.73,22.11C9.13,20.63 9.67,18.95 9.67,17.22C9.68,13.52 7.12,9.62 5.09,7.56C3.72,6.18 1.07,3.51 -0.44,2.35L-0.48,2.31L-2.26,0.04L-2.26,-0.23L-2,-0.3L0.16,0.7L0.18,0.72C1.73,1.68 4.45,1.91 6.5,2.36C8.61,2.8 10.91,2.95 12.8,4.4C16,6.94 14.37,13.04 16.64,15.58C17.51,16.62 20.29,17.93 22.98,17.92L23.91,17.86C28.15,17.4 32.36,14.42 33.14,12.37L33.34,11.57L32.85,11.18C31.35,11.16 27.21,13.46 24.3,13.47L22.87,13.22C18.94,11.48 20.66,2.66 16.9,-0.82C15.75,-1.94 13.36,-2.24 11.18,-2.59C9.03,-2.96 6.99,-3.35 6.68,-5.07L6.74,-5.26L6.93,-5.32L10.36,-4.92L10.38,-4.7L10.4,-4.92C12.64,-5.06 15.15,-5.79 17.24,-6.68C20.06,-7.88 25.37,-13.43 28.81,-13.46L29.87,-13.25C33.32,-11.65 34.41,-9.26 34.4,-6.91C34.4,-4.52 33.33,-2.18 32.64,-0.59L32.47,-0.47L32.47,-0.37L32.55,-0.37L32.58,-0.45C32.6,-0.5 32.62,-0.54 32.64,-0.59L34.8,-2.08C36.6,-4.28 37.35,-6.58 37.35,-8.77C37.36,-13.6 33.67,-17.89 29.43,-18.99L28.47,-19.11C24.61,-19.13 19.56,-13.72 17.09,-12.55C16.32,-12.21 12.69,-10.79 10.88,-10.78L9.83,-11.25L9.8,-11.42C9.88,-12.23 11.29,-13.17 12.76,-14.2C14.22,-15.18 15.75,-16.08 15.96,-16.23C18.81,-18.17 19.14,-21.5 20.88,-25.11C21.45,-26.29 21.68,-27.3 21.68,-28.2C21.73,-32.25 16.92,-34.31 16.86,-38.38C16.86,-39.18 17.06,-40.05 17.52,-41.02C18.19,-42.43 18.99,-42.84 19.73,-42.83L21.23,-42.62L22.06,-43.46L22.13,-43.89C22.13,-44.67 21.23,-45.15 19.85,-45.15C17.8,-45.16 15.06,-44.05 14.24,-41.95C13.86,-41 13.71,-39.94 13.71,-38.83C13.71,-35.9 14.72,-32.6 14.84,-29.74L14.85,-29.35C14.85,-25.84 12.84,-23.12 10.88,-20.02C9.06,-17.16 5.4,-15.07 1.97,-15.06L1.26,-15.09C-0.91,-15.26 -1.84,-16.09 -1.84,-17.15C-1.82,-18.22 -0.96,-19.34 -0.05,-20.15L0,-20.18ZM0.1,-19.99L0.2,-19.79C0.22,-19.8 0.23,-19.81 0.25,-19.82L-1.39,-17.15C-1.39,-16.41 -0.82,-15.74 1.3,-15.54L1.97,-15.51C5.22,-15.5 8.79,-17.54 10.5,-20.26C12.49,-23.38 14.41,-26.02 14.41,-29.35L14.4,-29.72C14.28,-32.5 13.27,-35.81 13.27,-38.83C13.27,-39.98 13.42,-41.09 13.82,-42.12C14.78,-44.48 17.67,-45.59 19.85,-45.6C21.28,-45.59 22.56,-45.09 22.58,-43.89L22.49,-43.32L21.23,-42.17L19.73,-42.39C19.16,-42.38 18.58,-42.16 17.92,-40.83C17.48,-39.91 17.3,-39.11 17.3,-38.38C17.24,-34.7 22.07,-32.61 22.13,-28.2C22.13,-27.22 21.88,-26.14 21.28,-24.92C19.57,-21.41 19.26,-17.97 16.21,-15.86C15.96,-15.69 14.46,-14.81 13.01,-13.83C11.56,-12.89 10.17,-11.68 10.25,-11.42L10.25,-11.41L10.88,-11.22C12.5,-11.21 16.2,-12.63 16.9,-12.96C19.23,-14 24.27,-19.53 28.47,-19.55L29.54,-19.42C33.98,-18.26 37.79,-13.83 37.8,-8.77C37.8,-6.48 37.01,-4.07 35.15,-1.8L32.47,-0.02L32.23,-0.1L32.11,-0.37L32.17,-0.63C32.86,-2.22 33.96,-4.59 33.95,-6.91C33.94,-9.12 33,-11.28 29.68,-12.84L28.81,-13.02C25.74,-13.06 20.36,-7.58 17.42,-6.28C15.27,-5.36 12.71,-4.62 10.39,-4.48L10.35,-4.48L7.2,-4.84C7.16,-4.93 7.13,-5.03 7.12,-5.14L6.9,-5.1L6.88,-4.88L7.2,-4.84C7.58,-3.77 9.25,-3.35 11.25,-3.03C13.41,-2.67 15.86,-2.41 17.21,-1.15C21.11,2.67 19.57,11.51 23.04,12.8L24.3,13.02C27.04,13.03 31.08,10.76 32.85,10.74L33.51,10.93L33.78,11.57L33.56,12.53C32.63,14.85 28.36,17.79 23.96,18.3L22.98,18.36C20.14,18.35 17.33,17.06 16.3,15.87C13.89,12.98 15.47,6.94 12.53,4.75C10.78,3.4 8.57,3.24 6.41,2.79C4.4,2.35 1.68,2.14 -0.03,1.11L0.06,0.91L-0.06,1.1L-1.34,0.5L-0.17,2L-0.31,2.17L-0.13,2.04C1.43,3.24 4.04,5.88 5.4,7.25C7.49,9.38 10.11,13.32 10.12,17.22C10.12,19.04 9.53,20.85 8.06,22.42C6.64,23.93 5.58,24.56 3.83,25.38C3.24,25.65 0.8,26 -1.58,26.01C-3.78,25.98 -5.93,25.76 -6.28,24.42L-6.3,24.3C-6.14,23.36 -4.73,23.39 -3.24,23.22C-1.74,23.11 -0.06,23.01 0.43,22.68C3.01,21.06 4.75,20.54 4.74,18.39C4.74,17.73 4.58,16.9 4.21,15.82C2.62,11.21 0.28,11.76 -4.43,8C-6.38,6.42 -6.23,4.9 -7.47,3.59C-7.44,3.53 -7.42,3.5 -7.4,3.48L-7.48,3.4L-7.48,3.37L-7.5,3.39L-7.59,3.47L-7.47,3.59C-7.8,4.23 -8.51,7.24 -9.45,8.56C-11.3,11.09 -15.43,15.1 -15.63,18.65L-15.63,18.81C-15.6,19.72 -15.18,19.92 -14.31,19.95C-12.69,19.96 -10.02,18.82 -8.47,18.8L-7.38,19.22L-7.39,19.49L-9.94,22.78L-10.04,22.85C-12.09,23.62 -13.76,23.94 -15.18,23.94C-17.33,23.94 -18.92,23.19 -20.41,22.14C-21.37,21.46 -21.76,20.44 -21.76,19.3C-21.74,15.08 -16.75,8.8 -15.64,7.19C-15.2,6.57 -13.71,4.63 -13.73,3.46L-14.18,2.63L-14.29,2.61C-14.88,2.53 -16.64,4.58 -18.14,6.75C-19.68,8.92 -21.08,11.15 -21.61,11.62C-25.28,14.86 -26.69,15.95 -31.53,15.93L-32.18,15.93C-32.46,15.91 -34.09,15.35 -35.92,15.35L-36.45,15.37C-38.66,15.5 -40.67,15.45 -40.67,15.47L-40.69,15.47L-41.55,16.67L-41.13,19.4L-41.47,20.22L-41.63,20.26L-43.38,20.04L-43.47,20.01C-45.38,18.79 -46.26,17.25 -46.26,15.75C-46.25,13.52 -44.34,11.48 -41.38,10.73C-40.02,10.37 -38.59,10.3 -37.17,10.3C-35.98,10.3 -34.79,10.35 -33.66,10.35C-31.7,10.35 -29.9,10.18 -28.47,9.33C-27.45,8.73 -24.82,6.1 -24.18,5.12C-22.76,3.01 -21.01,1.21 -20.71,-0.69L-20.7,-0.86L-20.72,-0.99L-20.77,-1C-21.43,-1.04 -24,1.19 -25.14,1.59C-28.78,2.78 -31.86,3.88 -35.52,3.89C-36.42,3.89 -37.37,3.82 -38.36,3.66C-47.23,2.33 -45.73,-1.21 -48.03,-8.12C-48.42,-9.4 -50.03,-12.54 -51.44,-12.47L-51.48,-12.46C-53.82,-12.41 -55.46,-9.87 -56.91,-9.8L-57.93,-10.51L-58.03,-10.88C-57.94,-12.45 -54.34,-15.17 -53.75,-15.57C-52.06,-16.58 -50.63,-17.01 -49.41,-17.01C-45.09,-16.97 -43.65,-11.81 -42.21,-9.19C-40.96,-6.89 -40,-5.19 -37.77,-4.37C-37.04,-4.1 -36.03,-4 -34.96,-4C-33.17,-4 -31.19,-4.28 -29.84,-4.48L-27.2,-5.68L-26.25,-6.42L-25.99,-6.67L-25.93,-6.73L-25.94,-6.69L-25.77,-6.65L-25.91,-6.75L-25.93,-6.73L-25.92,-6.77L-26.14,-6.91C-26.78,-7.09 -28.48,-6.9 -30.08,-7.45C-33.6,-8.65 -31.87,-7.56 -37.41,-10.71C-39.3,-11.8 -39.58,-13.18 -40.58,-15.01C-41.95,-17.54 -42.03,-20.24 -42.64,-22.24C-43.27,-24.24 -44.26,-25.54 -47.67,-25.57L-48.39,-25.55C-50.54,-25.46 -52.28,-24.41 -53.28,-22.66L-53.38,-22.56L-57.66,-20.63L-57.94,-20.72L-58.18,-21.62C-58.16,-23.2 -56.43,-24.89 -55.69,-25.82C-53.8,-28.11 -49.66,-30.35 -45.54,-30.35C-44.6,-30.35 -43.65,-30.23 -42.74,-29.97C-37.16,-28.25 -36.05,-19.9 -29.83,-16.1C-28.31,-15.16 -25.88,-13.94 -23.8,-13.94C-22.81,-13.94 -21.91,-14.21 -21.19,-14.9L-20.85,-15.66C-20.78,-17.77 -26.62,-21.84 -28.16,-24.09C-29.35,-25.87 -29.88,-27.87 -29.88,-29.92C-29.87,-35.36 -26.17,-41.09 -21.23,-44.07C-18.4,-45.76 -14.21,-46.06 -11,-46.17L-10.21,-46.19C-0.94,-46.17 6.2,-40.22 6.22,-31.95C6.22,-30.59 6.03,-29.17 5.62,-27.71C4.94,-25.34 2.6,-21.06 0.25,-19.82L0.1,-19.99Z" style="fill:white;fill-rule:nonzero;"/>
            </g>
            <g transform="matrix(1,0,0,1,1000.7,323.382)">
                <path d="M0,-17.83C4.24,-16.73 7.93,-12.44 7.92,-7.61C7.92,-5.42 7.17,-3.12 5.37,-0.92L3.21,0.57C3.9,-1.02 4.97,-3.36 4.97,-5.75C4.98,-8.1 3.89,-10.49 0.44,-12.09L-0.62,-12.3C-4.06,-12.27 -9.37,-6.72 -12.19,-5.52C-14.28,-4.63 -16.79,-3.9 -19.03,-3.76L-19.07,-3.76L-22.5,-4.16L-22.69,-4.1L-22.75,-3.91C-22.44,-2.19 -20.4,-1.8 -18.25,-1.43C-16.07,-1.08 -13.68,-0.78 -12.53,0.34C-8.77,3.82 -10.49,12.64 -6.56,14.38L-5.13,14.63C-2.22,14.62 1.92,12.32 3.42,12.34L3.91,12.73L3.71,13.53C2.93,15.58 -1.28,18.56 -5.52,19.02L-6.45,19.08C-9.14,19.09 -11.92,17.78 -12.79,16.74C-15.06,14.2 -13.43,8.1 -16.63,5.56C-18.52,4.11 -20.82,3.96 -22.93,3.52C-24.98,3.07 -27.7,2.84 -29.25,1.88L-29.27,1.86L-31.43,0.86L-31.69,0.93L-31.69,1.2L-29.91,3.47L-29.87,3.51C-28.36,4.67 -25.71,7.34 -24.34,8.72C-22.31,10.78 -19.75,14.68 -19.76,18.38C-19.76,20.11 -20.3,21.79 -21.7,23.27C-23.08,24.75 -24.05,25.32 -25.79,26.14C-26.19,26.34 -28.7,26.73 -31.01,26.72C-33.2,26.75 -35.2,26.31 -35.28,25.49L-35.28,25.46L-34.59,25.07L-32.63,24.82C-31.12,24.7 -29.49,24.66 -28.76,24.21C-26.29,22.65 -24.26,22.05 -24.25,19.55C-24.25,18.82 -24.42,17.94 -24.8,16.83C-26.47,12.01 -29.02,12.48 -33.58,8.81C-35.46,7.33 -35.19,5.86 -36.7,4.31L-36.71,4.3L-36.91,4.23L-37.47,4.97L-37.94,6.4C-38.3,7.49 -38.74,8.77 -39.24,9.46C-41.03,11.95 -45.25,15.95 -45.5,19.78L-45.51,19.97L-44.99,21.21L-43.74,21.56C-41.97,21.55 -39.28,20.4 -37.9,20.41L-37.33,20.59L-39.69,23.62C-41.67,24.36 -43.27,24.66 -44.61,24.66C-46.65,24.65 -48.13,23.96 -49.58,22.93C-50.41,22.35 -50.74,21.51 -50.74,20.46C-50.76,16.54 -45.84,10.21 -44.7,8.6C-44.29,7.98 -42.74,6.08 -42.72,4.62L-43.39,3.41L-43.72,3.32C-44.84,3.4 -46.35,5.48 -47.93,7.65C-49.46,9.81 -50.93,12.11 -51.33,12.45C-55.04,15.69 -56.18,16.63 -60.96,16.65L-61.61,16.64C-61.7,16.64 -63.52,16.07 -65.35,16.07L-65.9,16.08C-68.14,16.22 -69.93,16.14 -70.23,16.21L-70.23,16.2L-70.24,16.21C-71.13,16.42 -71.45,17.12 -71.43,17.83C-71.42,18.79 -70.99,19.91 -71,20.56L-71.14,20.96L-72.69,20.77C-74.49,19.61 -75.24,18.22 -75.24,16.91C-75.25,14.95 -73.54,13.05 -70.7,12.32C-69.4,11.98 -68,11.9 -66.6,11.9C-65.42,11.9 -64.24,11.95 -63.09,11.95C-61.11,11.95 -59.22,11.79 -57.68,10.87C-56.53,10.18 -53.97,7.6 -53.24,6.53C-51.87,4.46 -50.06,2.65 -49.7,0.54L-49.68,0.3L-49.81,-0.12L-50.2,-0.28C-51.27,-0.23 -53.7,2.02 -54.71,2.32C-58.36,3.52 -61.39,4.6 -64.95,4.6C-65.83,4.6 -66.75,4.53 -67.72,4.38C-76.39,3 -74.61,0.04 -77.04,-7.1C-77.51,-8.42 -78.92,-11.68 -80.87,-11.75L-80.93,-11.75C-83.51,-11.63 -85.36,-9 -86.34,-9.08L-86.98,-9.57L-87.01,-9.72C-87.1,-10.75 -83.45,-13.77 -82.95,-14.03C-81.31,-15.01 -79.96,-15.4 -78.84,-15.4C-74.96,-15.44 -73.5,-10.56 -72.03,-7.82C-70.79,-5.53 -69.76,-3.67 -67.35,-2.8C-66.53,-2.5 -65.49,-2.4 -64.39,-2.4C-62.56,-2.4 -60.56,-2.68 -59.21,-2.87C-57.7,-3.08 -56.12,-4.28 -55.39,-4.92L-54.94,-5.42L-54.91,-5.61L-56.5,-6.29C-57.32,-6.33 -58.37,-6.36 -59.36,-6.71C-62.98,-7.95 -61.05,-6.78 -66.62,-9.94C-68.36,-10.94 -68.58,-12.15 -69.62,-14.06C-70.93,-16.48 -71.02,-19.12 -71.65,-21.21C-72.26,-23.32 -73.57,-24.88 -77.1,-24.85L-77.84,-24.83C-80.09,-24.74 -81.99,-23.63 -83.07,-21.78L-87.04,-19.97L-87.17,-20.46C-87.19,-21.71 -85.55,-23.45 -84.78,-24.38C-83,-26.54 -78.92,-28.76 -74.97,-28.75C-74.06,-28.75 -73.16,-28.63 -72.3,-28.38C-67.09,-26.89 -65.89,-18.55 -59.49,-14.56C-57.94,-13.61 -55.48,-12.34 -53.23,-12.34C-52.16,-12.33 -51.13,-12.63 -50.31,-13.41L-49.83,-14.5C-49.9,-17.12 -55.81,-21 -57.22,-23.18C-58.36,-24.88 -58.86,-26.79 -58.86,-28.76C-58.87,-33.99 -55.24,-39.63 -50.43,-42.53C-47.76,-44.14 -43.61,-44.46 -40.41,-44.57L-39.64,-44.58C-30.55,-44.57 -23.65,-38.77 -23.65,-30.79C-23.65,-29.47 -23.84,-28.09 -24.24,-26.67C-24.86,-24.39 -27.3,-20.08 -29.43,-19.02L-29.48,-18.99C-30.39,-18.18 -31.25,-17.06 -31.27,-15.99C-31.27,-14.93 -30.34,-14.1 -28.17,-13.93L-27.46,-13.9C-24.03,-13.91 -20.37,-16 -18.55,-18.86C-16.59,-21.96 -14.58,-24.68 -14.58,-28.19L-14.59,-28.58C-14.71,-31.44 -15.72,-34.74 -15.72,-37.67C-15.72,-38.78 -15.57,-39.84 -15.19,-40.79C-14.37,-42.89 -11.63,-44 -9.58,-43.99C-8.2,-43.99 -7.3,-43.51 -7.3,-42.73L-7.37,-42.3L-8.2,-41.46L-9.7,-41.67C-10.44,-41.68 -11.24,-41.27 -11.91,-39.86C-12.37,-38.89 -12.57,-38.02 -12.57,-37.22C-12.51,-33.15 -7.7,-31.09 -7.75,-27.04C-7.75,-26.14 -7.98,-25.13 -8.55,-23.95C-10.29,-20.34 -10.62,-17.01 -13.47,-15.07C-13.68,-14.92 -15.21,-14.02 -16.67,-13.04C-18.14,-12.01 -19.55,-11.07 -19.63,-10.26L-19.6,-10.09L-18.55,-9.62C-16.74,-9.63 -13.11,-11.05 -12.34,-11.39C-9.87,-12.56 -4.82,-17.97 -0.96,-17.95L0,-17.83Z" style="fill:white;fill-rule:nonzero;"/>
            </g>
            <g transform="matrix(0.816968,-0.576683,-0.576683,-0.816968,1003.76,324.119)">
                <path d="M0.01,0.051L0.218,0.051C0.173,0.022 0.133,0 0.088,-0.029L0.017,-0.077L0.01,0.051Z" style="fill:white;fill-rule:nonzero;"/>
            </g>
            <g transform="matrix(1,0,0,1,1003.74,324.172)">
                <path d="M0,-0.1L0.08,0L0,0L0,-0.1Z" style="fill:white;fill-rule:nonzero;"/>
            </g>
            <g transform="matrix(-0.0905357,0.995893,0.995893,0.0905357,981.758,319.762)">
                <path d="M-0.131,-0.1L0.09,-0.1L-0.128,-0.14L-0.131,-0.1Z" style="fill:white;fill-rule:nonzero;"/>
            </g>
            <g transform="matrix(-0.992278,-0.124035,-0.124035,0.992278,978.17,319.384)">
                <path d="M-0.337,0.279L-0.015,0.279L-0.007,0.058L-0.221,-0.009C-0.244,0.099 -0.287,0.195 -0.337,0.279" style="fill:white;fill-rule:nonzero;"/>
            </g>
            <g transform="matrix(1,0,0,1,971.37,304.752)">
                <path d="M0,-0.2L0.15,-0.03C0.13,-0.02 0.12,-0.01 0.1,0L0,-0.2Z" style="fill:white;fill-rule:nonzero;"/>
            </g>
            <g transform="matrix(-0.410365,0.911922,0.911922,0.410365,971.337,325.648)">
                <path d="M-0.176,-0.086L0.044,-0.086L0.048,-0.095L0.047,-0.118L-0.176,-0.086Z" style="fill:white;fill-rule:nonzero;"/>
            </g>
            <g transform="matrix(-0.683941,-0.729537,-0.729537,0.683941,970.955,326.621)">
                <path d="M-0.07,-0.161C-0.077,-0.168 -0.085,-0.161 -0.099,-0.161L-0.07,0.059L-0.042,-0.16L-0.07,-0.161Z" style="fill:white;fill-rule:nonzero;"/>
            </g>
            <g transform="matrix(1,0,0,1,963.87,327.972)">
                <path d="M0,0.05L-0.08,0.08L-0.08,-0.03L0,0.05Z" style="fill:white;fill-rule:nonzero;"/>
            </g>
            <g transform="matrix(0.936329,-0.351123,-0.351123,-0.936329,963.781,328.05)">
                <path d="M0.008,-0.005L0.094,-0.005C0.068,-0.017 0.039,-0.038 -0.011,-0.084L-0.075,0.058L0.008,-0.005Z" style="fill:white;fill-rule:nonzero;"/>
            </g>
            <g transform="matrix(1,0,0,1,963.79,328.022)">
                <path d="M0,-0.11L0,0.03L-0.1,0L-0.02,-0.09L0,-0.11Z" style="fill:white;fill-rule:nonzero;"/>
            </g>
            <g transform="matrix(1,0,0,1,963.77,328.022)">
                <path d="M0,-0.09L-0.08,0L-0.09,-0.01L0,-0.09Z" style="fill:white;fill-rule:nonzero;"/>
            </g>
            <g transform="matrix(-0.810679,0.585491,0.585491,0.810679,963.402,343.992)">
                <path d="M-0.308,0.1L-0.086,0.1L0.015,-0.035L-0.238,-0.111L-0.308,0.1Z" style="fill:white;fill-rule:nonzero;"/>
            </g>
            <g transform="matrix(0.371391,0.928477,0.928477,-0.371391,961.157,347.054)">
                <path d="M-0.099,-0.054L0.116,-0.054L-0.071,-0.172L-0.103,-0.117C-0.095,-0.098 -0.097,-0.076 -0.099,-0.054" style="fill:white;fill-rule:nonzero;"/>
            </g>
            <g transform="matrix(-0.973417,-0.229039,-0.229039,0.973417,945.344,317.774)">
                <path d="M-0.179,0.079L-0.005,0.079L-0.013,0.026L-0.02,0.014L-0.179,0.079Z" style="fill:white;fill-rule:nonzero;"/>
            </g>
            <g transform="matrix(1,0,0,1,945.35,317.852)">
                <path d="M0,-0.05L-0.02,0L-0.01,-0.04L0,-0.05Z" style="fill:white;fill-rule:nonzero;"/>
            </g>
            <g transform="matrix(1,0,0,1,930.47,339.802)">
                <path d="M0,-0.21L0.06,0L-0.01,-0.21L0,-0.21Z" style="fill:white;fill-rule:nonzero;"/>
            </g>
            <g transform="matrix(1,0,0,1,930.47,339.592)">
                <path d="M0,-0.01L0,0L-0.01,0L0,-0.01Z" style="fill:white;fill-rule:nonzero;"/>
            </g>
            <g transform="matrix(-0.135113,0.99083,0.99083,0.135113,929.708,344.555)">
                <path d="M-0.19,-0.034L0.032,-0.034L-0.129,-0.187L-0.191,-0.176L-0.19,-0.034Z" style="fill:white;fill-rule:nonzero;"/>
            </g>
            <g transform="matrix(-0.533993,0.845489,0.845489,0.533993,928.016,344.346)">
                <path d="M-0.16,-0.072L0.065,-0.072L-0.132,-0.173L-0.161,-0.108C-0.157,-0.094 -0.163,-0.086 -0.16,-0.072" style="fill:white;fill-rule:nonzero;"/>
            </g>
            <g transform="matrix(0.410365,0.911922,0.911922,-0.410365,917.795,301.64)">
                <path d="M-0.097,-0.05L0.122,-0.05L-0.06,-0.187C-0.074,-0.17 -0.088,-0.152 -0.103,-0.135L-0.097,-0.05Z" style="fill:white;fill-rule:nonzero;"/>
            </g>
            <g transform="matrix(0.254493,0.967075,0.967075,-0.254493,913.738,303.611)">
                <rect x="-0.212" y="-0.237" width="0.254" height="0.212" style="fill:white;"/>
            </g>
        </g>
    </g>
</svg>
