<?xml version="1.0" encoding="UTF-8" standalone="no"?>
<!DOCTYPE svg PUBLIC "-//W3C//DTD SVG 1.1//EN" "http://www.w3.org/Graphics/SVG/1.1/DTD/svg11.dtd">
<svg width="100%" height="100%" viewBox="0 0 461 436" version="1.1" xmlns="http://www.w3.org/2000/svg" xmlns:xlink="http://www.w3.org/1999/xlink" xml:space="preserve" xmlns:serif="http://www.serif.com/" style="fill-rule:evenodd;clip-rule:evenodd;stroke-linejoin:round;stroke-miterlimit:2;">
    <g transform="matrix(1,0,0,1,-753.022,-106.229)">
        <g transform="matrix(-4.16667,0,0,4.16667,4987.83,-2859.92)">
            <rect x="905.803" y="711.875" width="110.55" height="104.52" style="fill:rgb(210,94,163);"/>
        </g>
        <g transform="matrix(4.16667,0,0,4.16667,1113.66,348.695)">
            <path d="M0,-9.61C-0.106,-9.203 -0.364,-8.851 -0.72,-8.626C-1.633,-8.177 -2.471,-9.309 -2.976,-10.189C-3.861,-11.703 -5.096,-12.985 -6.575,-13.927C-8.055,-14.868 -9.737,-15.444 -11.484,-15.604C-11.645,-15.638 -11.813,-15.637 -11.973,-15.603C-12.134,-15.568 -12.286,-15.501 -12.42,-15.404C-12.608,-15.171 -12.707,-14.876 -12.695,-14.576C-13.047,-9.536 -12.07,-4.514 -11.677,0.523C-11.284,5.56 -11.536,10.883 -14.09,15.244C-15.463,17.59 -17.516,19.717 -17.801,22.423C-14.269,23.438 -10.997,25.198 -8.202,27.586L-11.859,27.426L-11.882,28.655C-12.857,28.261 -13.867,27.86 -14.918,27.89C-15.967,27.92 -17.081,28.506 -17.389,29.512C-20.166,29.598 -22.512,26.439 -21.625,23.803L-28.254,25.266C-29.66,25.578 -31.435,26.379 -31.223,27.805C-31.118,28.268 -30.891,28.694 -30.566,29.041C-29.073,30.857 -27.163,32.286 -24.999,33.205C-28.064,33.606 -31.16,33.027 -34.196,32.463C-34.642,32.43 -35.063,32.242 -35.384,31.932C-35.707,31.531 -35.659,30.956 -35.804,30.448C-35.949,29.939 -36.583,29.501 -36.947,29.868L-37.255,28.922C-38.224,28.45 -39.15,27.895 -40.024,27.263L-40.136,27.181L-37.938,23.777C-37.736,23.505 -37.587,23.198 -37.496,22.872C-37.443,22.45 -37.485,22.021 -37.619,21.617C-40.392,10.488 -41.022,-1.067 -39.474,-12.431C-47.593,-11.547 -55.061,-7.579 -60.339,-1.348C-60.81,-0.787 -61.285,-0.186 -61.961,0.104C-62.636,0.393 -63.56,0.237 -63.872,-0.423C-64.006,-0.779 -64.033,-1.166 -63.95,-1.537C-63.208,-6.964 -58.045,-11.243 -53.513,-13.786C-48.802,-16.406 -43.375,-18.051 -39.474,-21.933C-37.459,-23.937 -36.004,-26.432 -34.768,-28.985C-33.491,-31.617 -32.427,-34.349 -31.079,-36.947C-30.366,-38.32 -29.557,-39.675 -28.395,-40.696C-25.518,-43.216 -20.601,-42.897 -18.084,-40.024C-17.441,-39.282 -16.919,-38.41 -16.054,-37.961C-15.274,-37.548 -14.334,-37.567 -13.504,-37.278C-12.672,-36.988 -11.874,-36.112 -12.208,-35.295C-12.542,-34.479 -13.659,-34.408 -14.546,-34.323C-16.167,-34.152 -17.688,-33.464 -18.885,-32.36C-19.038,-32.248 -19.166,-32.105 -19.259,-31.94C-19.35,-31.774 -19.406,-31.591 -19.42,-31.402C-19.382,-31.161 -19.283,-30.935 -19.13,-30.745L-16.161,-26.335C-15.746,-25.649 -15.235,-25.024 -14.647,-24.479C-13.163,-23.232 -11.058,-23.151 -9.15,-22.768C-6.18,-22.174 -3.315,-20.634 -1.474,-18.214C0.368,-15.794 1.062,-12.461 0,-9.61" style="fill:white;fill-rule:nonzero;"/>
        </g>
    </g>
</svg>
