<?xml version="1.0" encoding="UTF-8" standalone="no"?>
<!DOCTYPE svg PUBLIC "-//W3C//DTD SVG 1.1//EN" "http://www.w3.org/Graphics/SVG/1.1/DTD/svg11.dtd">
<svg width="100%" height="100%" viewBox="0 0 461 436" version="1.1" xmlns="http://www.w3.org/2000/svg" xmlns:xlink="http://www.w3.org/1999/xlink" xml:space="preserve" xmlns:serif="http://www.serif.com/" style="fill-rule:evenodd;clip-rule:evenodd;stroke-linejoin:round;stroke-miterlimit:2;">
    <g transform="matrix(1,0,0,1,-1266.67,-106.229)">
        <g transform="matrix(-4.16667,0,0,4.16667,6015.12,-2859.92)">
            <rect x="1029.08" y="711.875" width="110.55" height="104.52" style="fill:rgb(95,43,119);"/>
        </g>
        <g transform="matrix(4.16667,0,0,4.16667,1678.43,282.912)">
            <path d="M0,28.583C-0.275,29.188 -1.365,29.237 -2.06,28.917C-3.31,28.873 -4.518,28.459 -5.531,27.726C-6.685,26.87 -6.85,25.773 -8.375,25.096C-9.484,24.651 -10.668,24.424 -11.863,24.427C-10.258,25.12 -8.77,26.054 -7.448,27.197C-6.665,27.933 -5.971,28.759 -5.381,29.658C-4.732,30.556 -4.019,31.407 -3.25,32.205C-2.684,32.342 -2.174,32.653 -1.792,33.096C-1.331,33.855 -1.084,34.725 -1.075,35.613C-1.075,36.289 -1.792,36.811 -2.413,36.766C-2.947,36.977 -3.534,37.017 -4.093,36.879C-4.53,36.783 -4.914,36.523 -5.167,36.154C-5.464,36.083 -5.74,35.944 -5.975,35.748C-6.967,35.083 -7.402,33.648 -8.075,32.742C-9.36,30.988 -11.28,30.184 -13.257,29.387C-16.345,28.147 -19.463,27.065 -22.6,25.957C-24.161,25.473 -25.526,24.506 -26.5,23.195C-29.701,23.015 -32.945,22.902 -36.082,22.226C-38.712,21.658 -41.431,21.444 -43.852,20.325C-46.647,19.738 -49.379,18.292 -51.742,16.89C-53.651,15.763 -55.319,14.305 -57.201,13.159C-58.047,12.645 -58.888,12.243 -59.647,11.732C-65.407,12.081 -71.531,12.596 -77.126,11.037C-78.779,13.99 -78.347,18.055 -80.669,20.666C-81.327,21.418 -82.721,21.538 -83.382,20.903C-84.333,20.719 -84.547,18.957 -83.968,18.089C-84.107,17.082 -83.547,16.319 -82.743,15.741C-82.277,13.945 -81.992,12.119 -81.616,10.308C-81.402,9.267 -81.297,8.098 -80.466,7.354C-79.636,6.611 -78.351,6.603 -77.314,6.34C-76.133,6.032 -74.977,5.634 -73.857,5.149C-75.931,4.799 -77.615,5.277 -79.677,6.231C-80.569,6.705 -81.532,7.03 -82.529,7.193C-83.562,7.324 -85.035,7.441 -85.888,6.678C-87.184,5.51 -86.305,4.071 -85.035,3.947C-84.686,3.387 -83.882,3.158 -83.179,3.259C-83.008,3.211 -82.831,3.182 -82.653,3.173C-82.119,3.177 -81.587,3.243 -81.068,3.368C-79.238,2.045 -77.021,0.058 -74.759,-0.014C-73.564,-0.044 -72.362,0.46 -71.22,0.697C-70.242,0.896 -69.249,1.004 -68.252,1.02C-67.376,0.242 -65.948,-0.108 -64.754,-0.337C-68.33,-3.207 -71.693,-6.127 -76.638,-5.89C-78.836,-5.781 -80.808,-4.639 -82.999,-4.349C-84.453,-4.152 -85.925,-4.119 -87.387,-4.252C-88.218,-4.338 -89.995,-4.537 -90.066,-5.717C-90.138,-6.897 -88.435,-6.972 -86.857,-6.792C-84.941,-7.167 -82.871,-6.717 -80.917,-7.081C-78.573,-7.524 -76.495,-8.434 -74.056,-8.171C-71.881,-7.938 -70.07,-6.991 -68.33,-5.71C-67.251,-4.909 -66.268,-3.97 -65.099,-3.29C-64.09,-2.752 -63.037,-2.303 -61.951,-1.949C-54.582,-3.376 -47.909,0.866 -41.285,3.819C-38.771,3.935 -36.3,4.536 -33.794,4.337C-32.159,4.206 -30.649,3.586 -28.996,3.548C-27.818,3.55 -26.646,3.698 -25.505,3.988C-24.032,3.082 -22.214,2.62 -20.662,1.94C-19.433,1.403 -17.919,0.892 -16.904,-0.01C-16.645,-0.235 -16.53,-0.461 -16.296,-0.622C-16.24,-0.836 -16.176,-1.039 -16.108,-1.246C-16.009,-1.664 -15.752,-2.028 -15.395,-2.264C-14.587,-2.696 -14.071,-2.039 -13.849,-1.325C-13.743,-1.452 -13.608,-1.552 -13.455,-1.618C-13.302,-1.683 -13.136,-1.711 -12.971,-1.701C-12.482,-1.637 -12.464,-1.084 -12.531,-0.596C-11.322,-0.296 -10.169,0.194 -9.115,0.858C-8.609,1.084 -8.152,1.405 -7.766,1.805C-7.533,2.16 -7.37,2.559 -7.293,2.977C-6.718,3.436 -6.128,3.879 -5.517,4.296C-4.964,4.672 -4.228,5.021 -3.84,5.592C-3.235,6.49 -3.735,6.945 -4.348,7.385C-4.316,7.66 -4.381,7.938 -4.532,8.17C-4.651,8.402 -4.815,8.606 -5.016,8.771C-5.098,8.826 -5.185,8.873 -5.276,8.91C-5.445,10.037 -6.027,10.653 -7.369,10.533C-8.792,10.413 -9.999,9.609 -11.452,9.5C-12.228,9.445 -13.007,9.445 -13.782,9.5C-14.77,10.319 -15.86,11.033 -16.818,11.878C-17.878,12.814 -18.945,13.757 -20.008,14.681C-19.226,16.014 -18.636,17.451 -18.257,18.949C-14.932,19.273 -11.359,19.584 -8.177,20.58C-6.26,21.181 -4.983,22.383 -3.856,23.909C-3.138,24.232 -2.446,24.609 -1.786,25.036C-1.196,25.412 -0.353,25.915 0.025,26.539C0.292,26.986 0.45,28.218 0,28.583" style="fill:white;fill-rule:nonzero;"/>
        </g>
    </g>
</svg>
