<?xml version="1.0" encoding="UTF-8" standalone="no"?>
<!DOCTYPE svg PUBLIC "-//W3C//DTD SVG 1.1//EN" "http://www.w3.org/Graphics/SVG/1.1/DTD/svg11.dtd">
<svg width="100%" height="100%" viewBox="0 0 461 436" version="1.1" xmlns="http://www.w3.org/2000/svg" xmlns:xlink="http://www.w3.org/1999/xlink" xml:space="preserve" xmlns:serif="http://www.serif.com/" style="fill-rule:evenodd;clip-rule:evenodd;stroke-linejoin:round;stroke-miterlimit:2;">
    <g transform="matrix(1,0,0,1,-753.022,-1579)">
        <g transform="matrix(-4.16667,0,0,4.16667,4987.83,85.625)">
            <rect x="905.803" y="358.41" width="110.55" height="104.52" style="fill:rgb(241,215,28);"/>
        </g>
        <g transform="matrix(4.16667,0,0,4.16667,1018.22,1641.99)">
            <path d="M0,81.053L3.783,81.191C3.783,81.191 4.527,78.866 2.132,77.27C1.978,77.166 3.268,63.202 3.268,63.202C3.268,63.202 4.244,62.606 4.317,62.222C4.729,60.038 4.729,55.377 5.159,55.291C5.75,55.173 5.089,60.633 5.882,62.101C6.042,62.398 6.741,62.772 6.741,62.772C6.741,62.772 7.232,68.241 7.257,70.201C7.279,71.852 6.931,77.218 6.931,77.218C6.931,77.218 8.23,77.396 7.911,79.952C7.894,80.09 12.193,80.176 12.176,79.952C12.017,77.893 11.138,77.302 10.648,77.132C10.457,77.065 10.321,76.895 10.325,76.692C10.325,76.692 10.063,72.682 10.086,71.354C10.13,68.905 10.594,61.586 10.594,61.586C10.594,61.586 12.262,60.064 12.417,58.49C12.67,55.916 12.646,50.419 12.755,47.13C12.755,47.114 12.756,47.098 12.757,47.082C12.842,44.759 13.82,42.549 15.372,40.819C17.289,38.683 20.36,34.569 21.91,29.117C22.557,26.837 22.619,23.653 22.598,21.936C22.587,21.133 22.699,20.332 22.93,19.562C23.119,18.929 23.321,18.194 23.371,17.784C23.477,16.919 23.32,13.914 23.32,13.914C23.32,13.914 25.397,13.373 26.983,12.538C27.07,12.492 27.225,12.552 27.406,12.665C28.115,13.107 29.198,12.851 29.614,12.126L29.666,12.04L28.204,11.094L29.938,10.977C30.417,10.969 30.653,10.391 30.315,10.051C30.315,10.051 30.057,10.009 29.82,9.58C29.578,9.141 29.344,8.307 28.29,7.74C27.871,7.515 26.705,7.299 25.873,7.167C25.244,7.067 24.635,6.873 24.063,6.596C24.063,6.596 23.454,6.013 23.148,5.866C22.822,5.71 21.531,5.384 21.531,5.384L21.981,2.321C22.071,1.712 21.229,1.46 20.969,2.017L19.811,5.006L20.045,0.844C20.096,-0.062 19.015,-0.138 18.642,0.689C18.642,0.689 18.044,5.31 15.873,6.192C13.294,7.242 13.07,12.47 13.07,12.47L12.384,27.031C11.66,29.822 9.158,28.609 9.158,28.609C7.025,26.753 0.523,25.896 -2.304,25.918C-2.304,25.918 -5.085,26.03 -8.805,26.021C-13.12,26.011 -18.687,25.918 -22.46,26.571C-28.617,27.638 -30.405,32.075 -31.024,31.731C-31.283,31.587 -32.108,31.515 -32.98,31.48C-34.496,31.42 -35.916,32.223 -36.644,33.554C-36.644,33.554 -37.284,34.414 -37.318,37.303C-37.348,39.776 -36.999,40.974 -36.775,41.484C-36.707,41.64 -36.496,41.652 -36.404,41.509C-36.404,41.509 -36.44,39.348 -35.883,39.341C-35.292,39.332 -35.167,41.253 -35.141,42.034C-35.139,42.095 -35.097,42.061 -35.037,42.05C-34.373,41.92 -34.252,40.665 -33.912,40.197C-33.819,40.068 -33.621,40.1 -33.57,40.25C-33.57,40.25 -32.79,43.105 -31.755,48.653C-30.182,57.088 -33.649,60.448 -34.206,64.053C-34.294,64.625 -33.955,65.521 -33.545,66.348C-32.755,67.943 -32.396,69.716 -32.425,71.495L-32.519,77.23C-32.531,77.97 -32.3,78.693 -31.861,79.288L-31.738,79.456C-31.63,79.603 -31.542,79.764 -31.478,79.935L-31.36,80.248C-31.175,80.743 -30.73,81.094 -30.206,81.161L-27.447,81.182L-27.449,81.134C-27.492,80.166 -28.263,79.39 -29.23,79.341L-29.373,79.333C-29.373,79.333 -29.874,74.129 -29.924,72.437C-29.951,71.5 -29.895,69.091 -29.868,68.04C-29.865,67.897 -29.675,67.854 -29.607,67.98C-28.835,69.413 -26.508,74.106 -26.286,78.989C-26.265,79.467 -24.42,79.402 -24.42,79.402L-24.409,80.425C-24.406,80.72 -24.157,80.952 -23.863,80.934L-19.966,81.036L-20.076,80.592C-20.348,79.498 -21.305,78.712 -22.431,78.658L-22.701,78.645L-25.681,68.237C-26.512,65.335 -25.654,62.211 -23.457,60.141C-19.321,57.114 -19.605,50.381 -19.605,50.381L-17.146,50.593C-16.733,50.629 -16.342,50.797 -16.032,51.072C-15.561,51.491 -14.903,51.626 -14.306,51.427L-13.956,51.155L-13.787,51.555C-13.435,52.389 -12.353,52.604 -11.709,51.968C-11.597,51.856 -11.41,51.881 -11.329,52.017L-11.028,52.528C-10.821,52.877 -10.326,52.904 -10.082,52.58L-10.069,52.562C-9.824,52.235 -9.334,52.229 -9.082,52.55C-8.861,52.831 -8.735,52.956 -8.634,52.967C-8.358,52.996 -8.143,51.951 -7.808,51.921C-7.578,51.899 -7.261,52.664 -7.261,52.664C-7.057,52.986 -6.583,52.974 -6.395,52.643C-6.395,52.643 -6.124,51.668 -5.847,51.68C-5.598,51.691 -5.432,52.585 -5.432,52.585C-5.271,52.938 -4.8,53.01 -4.54,52.722C-4.54,52.722 -4.062,51.841 -3.783,51.886C-3.646,51.908 -3.559,52.397 -3.559,52.397C-3.312,52.957 -2.565,53.068 -2.167,52.603C-2.167,52.603 -1.895,52.062 -1.789,52.161C-1.513,52.419 -2.124,60.137 -1.978,62.067C-1.932,62.672 -1.516,63.166 -1.218,63.447C-1.015,63.638 -0.891,63.894 -0.862,64.171C-0.752,65.21 -0.503,67.828 -0.602,70.545C-0.695,73.109 -1.306,76.567 -1.058,76.9C0.413,78.869 0,81.053 0,81.053" style="fill:white;fill-rule:nonzero;"/>
        </g>
    </g>
</svg>
