<?xml version="1.0" encoding="UTF-8" standalone="no"?>
<!DOCTYPE svg PUBLIC "-//W3C//DTD SVG 1.1//EN" "http://www.w3.org/Graphics/SVG/1.1/DTD/svg11.dtd">
<svg width="100%" height="100%" viewBox="0 0 461 436" version="1.1" xmlns="http://www.w3.org/2000/svg" xmlns:xlink="http://www.w3.org/1999/xlink" xml:space="preserve" xmlns:serif="http://www.serif.com/" style="fill-rule:evenodd;clip-rule:evenodd;stroke-linejoin:round;stroke-miterlimit:2;">
    <g transform="matrix(1,0,0,1,-1266.67,-1579)">
        <g transform="matrix(-4.16667,0,0,4.16667,6015.12,85.625)">
            <rect x="1029.08" y="358.41" width="110.55" height="104.52" style="fill:rgb(81,171,71);"/>
        </g>
        <g transform="matrix(4.16667,0,0,4.16667,1609.94,1928.27)">
            <path d="M0,-53.308C-1.217,-52.582 -2.615,-52.517 -3.974,-52.456L-4.484,-52.433C-4.503,-52.317 -4.519,-52.198 -4.534,-52.083C-4.593,-51.448 -4.741,-50.824 -4.972,-50.229L-4.853,-49.845C-4.5,-48.597 -4.055,-47.378 -3.521,-46.197C-3.428,-46.001 -3.332,-45.813 -3.243,-45.64C-2.828,-44.932 -2.551,-44.149 -2.43,-43.337C-2.348,-42.754 -2.376,-42.162 -2.511,-41.59C-2.534,-41.487 -2.567,-41.386 -2.611,-41.29C-2.707,-41.058 -2.87,-40.86 -3.079,-40.722C-3.21,-40.246 -3.525,-39.842 -3.954,-39.597C-4.557,-39.198 -5.294,-39.049 -6.005,-39.182C-6.447,-39.356 -6.85,-39.617 -7.187,-39.95C-7.336,-40.09 -7.495,-40.218 -7.663,-40.334C-8.153,-40.622 -8.666,-40.867 -9.199,-41.064C-9.396,-41.144 -9.583,-41.217 -9.783,-41.302C-10.373,-41.552 -10.936,-41.864 -11.46,-42.231C-11.43,-42.135 -11.403,-42.039 -11.381,-41.95C-11.357,-41.862 -11.316,-41.735 -11.3,-41.697C-11.284,-41.659 -11.238,-41.524 -11.208,-41.444C-11.131,-41.24 -11.054,-41.033 -10.997,-40.822C-10.82,-40.332 -10.832,-39.795 -11.027,-39.313C-11.338,-38.683 -12.045,-38.368 -12.693,-38.161C-12.859,-36.499 -13.349,-34.885 -14.134,-33.411C-12.762,-28.178 -16.149,-23.217 -18.822,-19.926C-18.998,-16.686 -19.252,-13.315 -19.59,-9.625C-19.535,-8.504 -19.563,-7.421 -19.59,-6.273C-19.59,-5.662 -19.62,-5.036 -19.62,-4.403C-19.571,-2.211 -19.334,-0.027 -18.913,2.124L-18.83,2.631C-18.752,2.75 -18.667,2.862 -18.584,2.973C-18.196,3.472 -17.85,4.003 -17.55,4.559C-17.405,4.855 -17.267,5.166 -17.139,5.465C-16.975,5.849 -16.81,6.233 -16.609,6.617C-16.472,6.854 -16.322,7.083 -16.16,7.304C-15.837,7.716 -15.587,8.179 -15.42,8.675C-15.312,9.124 -15.32,9.355 -15.447,9.462C-15.573,9.57 -15.977,9.462 -16.506,9.236C-16.471,9.55 -16.526,9.746 -16.668,9.838C-16.714,9.866 -16.767,9.879 -16.82,9.877C-16.952,9.867 -17.082,9.839 -17.204,9.792C-17.263,9.774 -17.321,9.76 -17.381,9.75L-17.765,9.685C-18.149,9.631 -18.533,9.57 -18.887,9.477C-19.762,9.258 -20.307,8.844 -20.514,8.253C-20.577,8.028 -20.605,7.795 -20.599,7.561L-20.599,7.485C-20.602,6.971 -20.641,6.458 -20.714,5.949C-21.425,5.565 -22.077,5.15 -22.219,4.448C-22.271,3.849 -22.203,3.246 -22.02,2.674C-21.924,2.303 -21.856,1.925 -21.817,1.545C-21.791,0.703 -21.814,-0.139 -21.886,-0.978C-21.928,-1.565 -21.993,-2.153 -22.054,-2.733C-22.135,-3.562 -22.231,-4.418 -22.258,-5.271C-22.414,-5.661 -22.543,-6.063 -22.642,-6.472C-22.845,-7.374 -22.828,-8.312 -22.593,-9.206C-22.841,-11.162 -22.99,-13.129 -23.038,-15.1C-23.083,-16.206 -23.129,-17.346 -23.206,-18.433C-24.485,-18.149 -25.948,-18.494 -27.138,-18.782C-27.353,-16.559 -27.138,-14.313 -26.923,-12.136C-26.773,-10.635 -26.62,-9.083 -26.612,-7.548C-26.475,-6.907 -26.418,-6.252 -26.443,-5.597C-26.488,-5.052 -26.564,-4.51 -26.669,-3.973C-26.794,-3.383 -26.872,-2.785 -26.904,-2.184C-26.928,-0.032 -26.844,2.12 -26.655,4.263C-26.612,4.828 -26.569,5.415 -26.535,5.964L-26.492,6.125C-26.312,6.965 -26.077,7.793 -25.787,8.602C-25.74,8.721 -25.629,8.94 -25.487,9.213C-25.037,10.088 -24.354,11.405 -24.596,11.939C-24.641,12.04 -24.708,12.13 -24.792,12.203C-24.875,12.276 -24.974,12.33 -25.08,12.361C-25.929,12.618 -27.384,11.804 -27.718,11.593C-27.763,11.768 -27.844,11.932 -27.958,12.073C-28.071,12.214 -28.213,12.329 -28.374,12.411C-28.485,12.461 -28.606,12.486 -28.727,12.484C-28.997,12.469 -29.259,12.395 -29.495,12.265C-30.16,11.931 -30.18,11.447 -30.133,10.844C-30.113,10.576 -30.091,10.311 -30.068,10.046C-29.983,9.294 -29.948,8.537 -29.964,7.78C-30.222,7.563 -30.453,7.316 -30.651,7.043C-30.84,6.536 -30.651,5.834 -30.513,5.265C-30.475,5.119 -30.444,4.981 -30.417,4.862C-29.837,2.128 -29.727,-0.421 -29.611,-3.12C-29.611,-3.474 -29.58,-3.838 -29.564,-4.199C-29.684,-4.533 -29.772,-4.817 -29.845,-5.09C-30.04,-5.898 -30.158,-6.722 -30.198,-7.551C-30.198,-7.624 -30.221,-7.739 -30.245,-7.893C-30.318,-8.423 -30.444,-9.31 -30.271,-9.751C-30.658,-10.763 -30.916,-11.82 -31.039,-12.896L-31.2,-13.952C-31.417,-15.193 -31.546,-16.448 -31.584,-17.707C-33.504,-17.634 -34.875,-17.926 -35.888,-18.632C-36.94,-17.162 -37.647,-15.319 -38.115,-12.838C-38.031,-12.347 -37.924,-11.813 -37.793,-11.203C-37.466,-9.997 -37.082,-8.841 -36.684,-7.609C-36.546,-7.171 -36.399,-6.73 -36.257,-6.288C-36.168,-6.023 -36.099,-5.754 -36.026,-5.489L-36,-5.39C-35.589,-4.384 -35.109,-3.407 -34.564,-2.468C-34.479,-2.326 -34.364,-2.149 -34.23,-1.949C-33.723,-1.181 -33.035,-0.16 -33.285,0.397C-33.339,0.506 -33.422,0.599 -33.524,0.666C-33.625,0.733 -33.743,0.773 -33.866,0.781C-33.969,0.878 -34.106,0.934 -34.25,0.938C-34.895,0.96 -35.54,0.856 -36.146,0.631C-36.389,0.557 -36.609,0.425 -36.787,0.245C-36.967,0.066 -37.098,-0.155 -37.172,-0.398C-37.231,-0.608 -37.267,-0.825 -37.279,-1.043C-37.279,-1.155 -37.302,-1.27 -37.316,-1.381C-37.354,-1.587 -37.401,-1.791 -37.458,-1.992C-37.493,-2.111 -37.524,-2.234 -37.552,-2.352C-37.779,-2.531 -38.039,-2.662 -38.319,-2.736C-38.606,-2.825 -38.757,-2.89 -38.941,-3.435C-39.085,-3.952 -39.153,-4.488 -39.141,-5.025C-39.142,-5.506 -39.194,-5.986 -39.295,-6.457L-39.813,-8.427C-40.197,-9.89 -40.581,-11.399 -40.984,-12.877C-41.527,-13.555 -41.869,-14.372 -41.971,-15.234C-42.093,-16.647 -41.356,-18.083 -40.691,-19.354C-41.35,-19.688 -41.978,-20.082 -42.566,-20.529C-43.031,-20.874 -43.515,-21.195 -44.013,-21.489C-45.321,-22.244 -46.459,-23.258 -47.362,-24.469C-48.53,-22.477 -49.529,-20.392 -50.349,-18.233C-50.653,-17.378 -50.909,-16.506 -51.117,-15.622C-51.384,-14.304 -51.818,-13.025 -52.411,-11.817C-52.492,-11.301 -52.63,-10.795 -52.821,-10.308C-52.966,-9.948 -53.136,-9.599 -53.332,-9.264C-53.403,-9.156 -53.48,-9.052 -53.563,-8.953C-53.593,-8.907 -53.632,-8.857 -53.673,-8.803C-54.114,-7.228 -54.466,-5.629 -54.729,-4.015C-54.76,-3.792 -54.791,-3.573 -54.825,-3.355C-54.938,-2.382 -55.145,-1.423 -55.444,-0.49C-55.468,0.622 -55.694,1.72 -56.112,2.75C-56.615,3.902 -57.037,3.795 -57.974,3.599C-58.03,3.683 -58.104,3.753 -58.191,3.803C-58.279,3.853 -58.377,3.882 -58.477,3.887C-58.65,3.927 -58.832,3.911 -58.996,3.842C-59.16,3.773 -59.298,3.655 -59.391,3.503C-59.71,2.942 -59.414,2.105 -59.195,1.499C-59.164,1.414 -59.137,1.341 -59.114,1.272C-58.804,0.387 -58.437,-0.477 -58.016,-1.316C-57.91,-2.265 -57.604,-3.181 -57.118,-4.004C-57.026,-4.23 -56.926,-4.464 -56.83,-4.698C-56.676,-5.056 -56.519,-5.428 -56.377,-5.785L-56.35,-5.877C-56.035,-7.029 -55.782,-8.181 -55.54,-9.306C-55.208,-11.054 -54.755,-12.777 -54.185,-14.463C-54.189,-15.108 -54.084,-15.749 -53.874,-16.359L-53.746,-16.824C-53.462,-17.903 -53.24,-19.013 -53.017,-20.088L-52.894,-20.679C-52.817,-21.546 -52.69,-22.408 -52.51,-23.259C-52.445,-23.605 -52.38,-23.973 -52.318,-24.327C-52.257,-24.68 -52.21,-25.133 -52.161,-25.563C-52.08,-26.547 -51.897,-27.519 -51.616,-28.466C-51.498,-29.287 -51.288,-30.092 -50.99,-30.865C-50.644,-31.733 -50.419,-32.644 -50.322,-33.572C-50.307,-34.429 -50.351,-35.286 -50.452,-36.137C-50.544,-36.912 -50.588,-37.692 -50.582,-38.472C-50.44,-40.018 -50.22,-41.555 -49.922,-43.079C-50.582,-44.001 -51.923,-48.19 -50.598,-47.249C-50.648,-47.675 -50.295,-48.562 -49.942,-48.044C-49.765,-50.409 -48.589,-47.391 -47.638,-45.31C-46.269,-46.916 -44.396,-48.008 -42.324,-48.405C-39.297,-48.931 -36.292,-47.606 -33.378,-46.285C-32.179,-45.74 -31.043,-45.226 -29.922,-44.842C-28.698,-45.161 -27.456,-45.405 -26.201,-45.571C-25.537,-45.66 -24.895,-45.698 -24.281,-45.732C-23.318,-45.75 -22.357,-45.864 -21.417,-46.074C-20.803,-46.625 -20.283,-47.273 -19.881,-47.994C-18.818,-49.792 -18.186,-51.812 -18.034,-53.896L-18.153,-54.061C-18.685,-54.669 -19.051,-55.402 -19.22,-56.192C-19.417,-57.449 -19.143,-58.735 -18.452,-59.805L-18.411,-59.866C-18.088,-60.331 -17.643,-60.968 -17.036,-60.722C-16.537,-60.515 -15.918,-59.29 -15.688,-58.829L-15.688,-58.799C-15.429,-58.269 -15.226,-57.715 -15.081,-57.144C-14.613,-57.321 -14.119,-57.422 -13.618,-57.443C-14.713,-60.561 -16.603,-62.408 -19.563,-63.257C-20.617,-63.53 -21.7,-63.679 -22.788,-63.702L-23.068,-63.702C-23.333,-63.663 -23.602,-63.681 -23.859,-63.756L-23.913,-63.794C-24.151,-63.955 -24.162,-63.971 -24.2,-64.197C-24.2,-64.232 -24.2,-64.274 -24.22,-64.312C-24.223,-64.334 -24.22,-64.356 -24.214,-64.377C-24.206,-64.398 -24.194,-64.416 -24.178,-64.431C-22.473,-65.871 -18.933,-65.222 -16.971,-64.301C-15.642,-63.635 -14.458,-62.713 -13.488,-61.586C-13.384,-61.471 -13.189,-61.279 -12.943,-61.03C-12.083,-60.181 -10.639,-58.764 -10.343,-57.958C-10.105,-57.969 -9.865,-57.954 -9.629,-57.912C-9.53,-57.897 -9.43,-57.875 -9.334,-57.846C-9.49,-59.206 -9.823,-60.539 -10.324,-61.813L-10.367,-61.936C-10.679,-62.637 -10.823,-63.403 -10.785,-64.17C-10.748,-64.477 -10.646,-64.772 -10.486,-65.037C-10.327,-65.302 -10.113,-65.53 -9.859,-65.706C-9.687,-65.814 -9.491,-65.882 -9.289,-65.904C-9.086,-65.926 -8.881,-65.902 -8.689,-65.833C-8.305,-65.702 -8.12,-65.587 -8.055,-65.449C-8.034,-65.386 -8.026,-65.32 -8.031,-65.254C-8.036,-65.188 -8.055,-65.124 -8.085,-65.065C-8.137,-64.951 -8.166,-64.829 -8.17,-64.704L-8.17,-64.677C-8.177,-64.675 -8.184,-64.675 -8.189,-64.677C-8.459,-64.383 -8.637,-64.016 -8.702,-63.621C-8.766,-63.227 -8.713,-62.823 -8.55,-62.458C-8.48,-61.993 -8.368,-61.536 -8.217,-61.091C-8.148,-60.857 -8.067,-60.611 -8.012,-60.373C-7.874,-59.839 -7.699,-59.14 -7.533,-58.422C-6.681,-58.015 -6.12,-57.209 -5.813,-55.973C-4.2,-55.374 -2.822,-55.485 -1.256,-55.842C-0.789,-55.963 -0.335,-56.123 0.104,-56.318C0.581,-56.536 1.079,-56.705 1.591,-56.821C1.726,-56.871 1.871,-56.89 2.014,-56.878C2.159,-56.865 2.299,-56.821 2.424,-56.748C2.503,-56.658 2.562,-56.55 2.594,-56.434C2.626,-56.317 2.631,-56.195 2.607,-56.076C2.527,-54.967 0.941,-53.865 0,-53.308" style="fill:white;fill-rule:nonzero;"/>
        </g>
    </g>
</svg>
