<?xml version="1.0" encoding="UTF-8" standalone="no"?>
<!DOCTYPE svg PUBLIC "-//W3C//DTD SVG 1.1//EN" "http://www.w3.org/Graphics/SVG/1.1/DTD/svg11.dtd">
<svg width="100%" height="100%" viewBox="0 0 461 436" version="1.1" xmlns="http://www.w3.org/2000/svg" xmlns:xlink="http://www.w3.org/1999/xlink" xml:space="preserve" xmlns:serif="http://www.serif.com/" style="fill-rule:evenodd;clip-rule:evenodd;stroke-linejoin:round;stroke-miterlimit:2;">
    <g transform="matrix(1,0,0,1,-753.022,-597.154)">
        <g transform="matrix(-4.16667,0,0,4.16667,4987.83,-1878.07)">
            <rect x="905.803" y="594.053" width="110.55" height="104.52" style="fill:rgb(235,57,74);"/>
        </g>
        <g transform="matrix(4.16667,0,0,4.16667,1169.61,762.767)">
            <path d="M0,27.829C-0.254,28.173 -0.537,28.494 -0.846,28.789C-1.302,29.227 -1.782,29.64 -2.283,30.024L-2.457,30.161C-2.596,30.27 -2.74,30.376 -2.887,30.482L-3.065,30.606L-3.25,30.735L-3.42,30.856C-3.545,30.939 -3.67,31.022 -3.798,31.102L-3.961,31.207L-4.289,31.415L-4.459,31.513C-4.66,31.634 -4.863,31.751 -5.068,31.865C-5.144,31.906 -5.219,31.948 -5.298,31.986C-5.521,32.107 -5.744,32.216 -5.967,32.322L-6.3,32.47L-6.629,32.606C-6.795,32.673 -6.957,32.73 -7.115,32.787L-7.275,32.836C-7.83,33.031 -8.416,33.124 -9.005,33.112C-9.265,33.538 -9.563,33.94 -9.894,34.313C-10.532,35.125 -11.286,35.837 -12.134,36.426L-12.286,36.528L-12.349,36.566L-12.513,36.672L-12.558,36.698L-12.751,36.808L-12.8,36.838L-13.003,36.947L-13.048,36.97L-13.267,37.08C-13.525,37.201 -13.763,37.303 -14.023,37.401L-14.136,37.442L-14.202,37.442C-14.26,37.446 -14.32,37.437 -14.376,37.416L-14.413,37.416L-14.474,37.386L-14.534,37.348L-14.587,37.306L-14.617,37.28C-14.806,37.102 -14.911,36.838 -14.722,36.634C-14.861,36.645 -15,36.645 -15.138,36.634C-15.99,36.527 -16.785,36.151 -17.406,35.561L-17.511,35.466C-17.579,35.402 -17.648,35.338 -17.712,35.27C-17.938,35.034 -18.147,34.781 -18.335,34.514C-19.772,33.936 -20.893,33.301 -21.858,32.024C-22.991,30.512 -23.875,27.53 -24.408,25.735C-24.408,25.683 -24.438,25.63 -24.45,25.573C-24.481,25.439 -24.503,25.302 -24.518,25.165C-24.701,25.219 -24.893,25.245 -25.084,25.24C-25.251,25.237 -25.416,25.21 -25.576,25.161C-26.758,24.783 -27.625,23.272 -27.114,21.515C-27.554,21.364 -27.973,21.158 -28.361,20.902L-28.527,20.797C-30.281,19.629 -30.711,18.083 -30.654,17.868C-30.824,17.959 -31.338,17.762 -32.08,17.607C-32.537,17.727 -33.007,17.791 -33.482,17.796L-34.142,17.819C-34.056,18.223 -33.98,18.612 -33.916,18.975C-33.689,20.237 -34.18,20.506 -34.177,21.79C-34.177,22.622 -34.607,23.593 -34.449,24.413C-34.289,25.233 -34.002,25.611 -33.73,26.438C-33.353,27.621 -33.595,28.309 -33.307,29.522C-33.092,30.436 -31.498,32.288 -31.498,34.038C-31.413,34.342 -31.3,34.638 -31.16,34.922C-30.844,35.409 -30.463,35.85 -30.027,36.233C-29.631,36.384 -28.928,37.405 -28.893,37.594C-28.844,37.949 -29.131,37.972 -29.517,38.055L-30.701,38.195C-30.845,38.207 -30.993,38.196 -31.135,38.16C-31.229,38.296 -31.459,38.323 -31.74,38.364L-33.25,38.47C-33.426,38.489 -33.602,38.462 -33.765,38.391C-35.193,38.418 -36.554,38.278 -37.12,37.915C-37.359,37.767 -37.32,37.227 -37.324,36.947C-37.343,36.006 -36.546,35.251 -36.429,34.302L-36.429,34.238L-36.447,34.238C-36.826,33.271 -37.532,33.195 -38.084,32.118C-38.708,30.897 -39.705,29.182 -41.163,25.887C-41.451,25.24 -41.742,25.781 -42.188,25.237C-42.416,24.975 -42.591,24.672 -42.706,24.345C-43.177,24.749 -43.726,25.101 -43.995,25.637C-44.372,26.423 -44.353,26.865 -44.632,27.693C-45.03,28.872 -45.294,28.347 -45.788,29.488C-46.082,30.343 -46.267,31.232 -46.341,32.133C-46.268,32.378 -46.179,32.618 -46.073,32.851C-45.778,33.336 -45.418,33.779 -45.003,34.166C-44.624,34.193 -43.85,35.368 -43.827,35.576C-43.782,35.931 -44.073,35.954 -44.458,36.018L-45.641,36.131C-45.806,36.148 -45.972,36.126 -46.126,36.067C-46.216,36.222 -46.454,36.241 -46.749,36.275L-48.26,36.35C-48.435,36.363 -48.611,36.33 -48.77,36.256C-50.198,36.256 -51.559,36.078 -52.115,35.704C-52.35,35.549 -52.297,35.009 -52.297,34.729C-52.297,33.788 -51.479,33.051 -51.34,32.118C-51.323,32.013 -51.313,31.907 -51.313,31.801C-51.186,30.357 -51.51,29.832 -51.313,28.694C-51.061,26.71 -50.71,24.74 -50.26,22.792C-50.112,22.153 -50.606,22.459 -50.705,21.945L-51.117,22.028C-52.869,22.4 -54.654,22.603 -56.445,22.637L-56.717,22.637C-60.711,22.603 -64.544,21.012 -67.427,18.881C-67.694,19.46 -68.009,20.016 -68.368,20.543C-69.04,21.533 -70.802,21.734 -70.858,24.05C-70.96,27.973 -68.889,31.366 -65.212,33.909L-64.804,34.193C-64.427,34.291 -63.693,35.398 -63.671,35.598C-63.629,35.954 -63.916,35.976 -64.306,36.04L-65.488,36.15C-65.634,36.16 -65.782,36.144 -65.923,36.105C-66.021,36.241 -66.251,36.26 -66.531,36.294L-68.042,36.362C-68.236,36.381 -68.431,36.337 -68.598,36.237C-69.21,36.26 -69.837,36.263 -70.442,36.237L-70.325,36.316C-69.948,36.415 -69.214,37.526 -69.191,37.722C-69.15,38.1 -69.437,38.1 -69.827,38.168L-71.009,38.274C-71.174,38.29 -71.341,38.268 -71.497,38.21C-71.591,38.357 -71.825,38.376 -72.116,38.41L-73.628,38.482C-73.81,38.495 -73.994,38.458 -74.157,38.376C-76.379,38.425 -78.654,38.202 -79.016,37.495C-79.217,37.117 -78.835,36.203 -78.797,35.772C-78.608,33.569 -83.237,30.86 -83.71,29.885C-84.182,28.91 -83.57,27.379 -83.426,26.321C-83.23,24.972 -83.104,23.614 -83.049,22.251L-83.049,20.865C-83.767,20.426 -84.148,20.041 -84.326,19.274C-84.454,18.718 -84.643,17.626 -84.738,17.067C-84.995,15.51 -86.249,14.183 -86.835,12.68C-87.33,11.406 -87.576,10.048 -87.56,8.681L-87.56,8.413C-87.548,7.245 -87.36,6.086 -87.001,4.974C-87.001,4.803 -86.99,4.633 -86.967,4.464C-87.12,4.776 -87.254,5.096 -87.368,5.424C-87.965,7.177 -88.441,8.519 -88.687,10.337C-88.801,11.502 -88.824,12.674 -88.755,13.843C-88.364,13.922 -88.012,14.13 -87.753,14.433L-87.708,14.49L-87.674,14.539L-87.674,14.561L-87.644,14.61L-87.625,14.637L-87.602,14.682L-87.602,14.716L-87.579,14.762L-87.579,14.879C-87.579,14.898 -87.579,14.913 -87.56,14.928L-87.56,14.966C-87.559,14.983 -87.559,15.001 -87.56,15.019L-87.56,15.344C-87.559,15.373 -87.559,15.402 -87.56,15.431L-87.56,15.536C-87.665,15.348 -87.814,15.189 -87.995,15.071C-88.028,15.048 -88.063,15.029 -88.101,15.015C-88.111,15.012 -88.121,15.012 -88.131,15.015C-87.852,15.438 -87.679,15.922 -87.628,16.426C-87.578,16.931 -87.65,17.44 -87.84,17.909C-87.874,17.981 -87.904,18.049 -87.935,18.121C-87.949,18.151 -87.961,18.181 -87.972,18.212L-87.972,18.231C-87.984,18.258 -87.994,18.285 -88.003,18.314L-87.855,18.48C-87.878,18.544 -87.901,18.612 -87.92,18.673C-87.927,18.701 -87.935,18.729 -87.946,18.756L-87.946,18.779C-87.946,18.801 -87.946,18.824 -87.965,18.847L-87.965,18.96C-87.963,18.983 -87.963,19.005 -87.965,19.028C-87.965,19.088 -87.976,19.145 -87.999,19.198L-87.999,19.289C-88.001,19.308 -88.001,19.327 -87.999,19.345L-87.999,20.317L-87.965,20.472L-87.931,20.604C-87.903,20.699 -87.866,20.791 -87.821,20.88C-87.799,20.921 -87.715,21.035 -87.715,21.035L-87.927,20.989L-88.01,20.97L-88.044,20.97L-88.116,20.951L-88.195,20.929L-88.267,20.902C-88.428,20.847 -88.582,20.774 -88.728,20.687L-88.785,20.653L-88.838,20.619C-89.148,20.416 -89.4,20.134 -89.567,19.803L-89.59,19.754C-89.648,19.632 -89.694,19.506 -89.73,19.376L-89.73,19.251C-89.727,19.237 -89.727,19.223 -89.73,19.209C-89.73,19.138 -89.752,19.066 -89.764,18.994L-89.764,18.941C-89.762,18.931 -89.762,18.921 -89.764,18.911L-89.764,18.374C-89.762,18.364 -89.762,18.354 -89.764,18.344C-89.776,18.371 -89.79,18.398 -89.805,18.423C-89.832,18.48 -89.854,18.533 -89.877,18.59C-89.9,18.646 -89.919,18.703 -89.938,18.76C-89.956,18.816 -89.971,18.877 -89.987,18.933C-90.002,18.99 -89.987,18.994 -89.987,19.02C-89.997,19.012 -90.006,19.002 -90.013,18.99L-90.032,18.967L-90.055,18.941L-90.085,18.899L-90.107,18.865C-90.106,18.854 -90.106,18.843 -90.107,18.831L-90.107,18.813L-90.134,18.771C-90.134,18.752 -90.134,18.733 -90.16,18.718L-90.183,18.677C-90.191,18.663 -90.197,18.65 -90.202,18.635C-90.202,18.612 -90.202,18.593 -90.228,18.571L-90.251,18.518L-90.251,18.495C-90.256,18.479 -90.262,18.464 -90.27,18.45L-90.27,18.427C-90.278,18.41 -90.284,18.392 -90.289,18.374L-90.289,18.355C-90.299,18.333 -90.308,18.311 -90.315,18.287L-90.315,18.261L-90.334,18.212L-90.334,18.106C-90.336,18.086 -90.336,18.066 -90.334,18.045L-90.334,17.921C-90.333,17.906 -90.333,17.891 -90.334,17.875L-90.334,17.838C-90.333,17.821 -90.333,17.805 -90.334,17.789L-90.334,17.754C-90.334,17.732 -90.334,17.705 -90.353,17.679L-90.353,17.173C-90.351,17.157 -90.351,17.142 -90.353,17.127L-90.353,17.082C-90.355,17.062 -90.355,17.042 -90.353,17.021L-90.353,16.776C-90.351,16.761 -90.351,16.745 -90.353,16.73C-90.351,16.712 -90.351,16.693 -90.353,16.674C-90.351,16.651 -90.351,16.628 -90.353,16.606L-90.353,16.213C-90.351,16.188 -90.351,16.162 -90.353,16.137L-90.353,16.092C-90.355,16.076 -90.355,16.059 -90.353,16.043L-90.353,15.835C-90.351,15.808 -90.351,15.782 -90.353,15.756L-90.353,15.208C-90.351,15.194 -90.351,15.18 -90.353,15.166L-90.353,15.109C-90.345,15.092 -90.338,15.075 -90.334,15.056C-90.333,15.043 -90.333,15.029 -90.334,15.015C-90.333,15.002 -90.333,14.99 -90.334,14.977L-90.315,14.935C-90.317,14.923 -90.317,14.91 -90.315,14.898L-90.296,14.856L-90.296,14.822C-90.147,14.515 -89.917,14.254 -89.631,14.066C-89.731,12.815 -89.712,11.558 -89.575,10.31C-89.397,8.871 -89.087,7.452 -88.649,6.07C-87.205,1.562 -85.626,0.024 -84.337,-1.382C-84.058,-1.76 -83.751,-2.137 -83.423,-2.515L-83.385,-2.561L-83.219,-2.746L-83.192,-2.776L-83.045,-2.939L-82.999,-2.984C-82.939,-3.048 -82.882,-3.112 -82.822,-3.173C-81.6,-4.448 -80.219,-5.56 -78.714,-6.483L-78.692,-6.483L-78.529,-6.578L-78.435,-6.634L-78.329,-6.695L-78.238,-6.748L-78.121,-6.812L-78.057,-6.846L-77.86,-6.952C-77.471,-7.158 -77.071,-7.343 -76.662,-7.507C-74.928,-8.191 -72.978,-8.059 -71.372,-8.161C-70.948,-8.194 -70.528,-8.258 -70.114,-8.354L-69.804,-8.418L-69.589,-8.463L-69.169,-8.55C-69.169,-8.688 -69.12,-8.822 -69.033,-8.928C-68.911,-9.035 -68.76,-9.104 -68.598,-9.125L-68.493,-9.125C-68.457,-9.129 -68.422,-9.129 -68.386,-9.125L-67.925,-9.125C-67.263,-9.061 -66.61,-8.935 -65.972,-8.747C-65.646,-8.648 -64.189,-8.101 -62.511,-7.439C-61.838,-7.209 -61.162,-6.99 -60.466,-6.816L-60.187,-6.751L-60.096,-6.751L-59.904,-6.71C-59.202,-6.566 -58.487,-6.492 -57.772,-6.491C-56.369,-6.493 -54.969,-6.578 -53.577,-6.744L-53.199,-6.785L-53.139,-6.785L-52.708,-6.842C-52.01,-6.94 -51.317,-7.054 -50.645,-7.182L-50.365,-7.235L-50.293,-7.235L-49.973,-7.296L-49.643,-7.364L-49.616,-7.364L-49.276,-7.439C-46.983,-7.934 -44.864,-8.573 -42.94,-9.125L-42.304,-9.314C-42.237,-10.202 -41.14,-10.644 -40.249,-10.655C-39.357,-10.666 -38.394,-10.621 -37.388,-10.538C-36.984,-10.508 -36.58,-10.47 -36.172,-10.424C-33.661,-10.179 -31.178,-9.705 -28.754,-9.008C-28.02,-8.827 -27.302,-8.598 -26.6,-8.32C-25.545,-7.817 -24.223,-6.124 -22.821,-3.834L-22.802,-3.804C-22.757,-3.728 -22.711,-3.653 -22.662,-3.577L-22.628,-3.52L-22.469,-3.252L-22.428,-3.18L-22.303,-2.973L-22.247,-2.878L-22.137,-2.685C-22.118,-2.659 -22.102,-2.631 -22.088,-2.602C-19.563,1.759 -16.866,7.654 -14.954,11.86C-14.466,11.531 -13.893,11.355 -13.306,11.353C-12.527,11.374 -11.749,11.288 -10.993,11.096C-10.886,11.054 -10.769,11.041 -10.656,11.059C-10.542,11.077 -10.436,11.125 -10.347,11.198C-10.268,11.328 -10.223,11.476 -10.217,11.628C-10.211,11.78 -10.245,11.931 -10.312,12.067C-10.445,12.415 -10.615,12.747 -10.82,13.057C-10.974,13.313 -11.16,13.549 -11.371,13.76C-11.633,13.997 -11.935,14.186 -12.263,14.316C-12.587,14.455 -12.927,14.554 -13.275,14.61L-13.147,14.682C-12.91,14.814 -12.693,14.98 -12.505,15.174C-12.045,15.095 -11.596,14.969 -11.163,14.796C-10.727,14.561 -10.307,14.296 -9.908,14.002C-9.32,13.704 -8.677,13.528 -8.019,13.484C-7.986,13.484 -7.947,13.484 -7.929,13.511C-7.911,13.547 -7.902,13.585 -7.898,13.624C-8.042,14.38 -8.423,15.759 -9.009,16.33C-9.479,16.721 -10.059,16.957 -10.668,17.006C-10.878,17.046 -11.094,17.058 -11.306,17.04C-11.476,17.021 -11.645,16.988 -11.81,16.942C-11.793,17.748 -11.822,18.554 -11.896,19.357C-11.896,19.463 -11.915,19.561 -11.923,19.659C-11.987,20.339 -12.07,20.967 -12.146,21.378C-12.247,21.964 -12.234,22.563 -12.107,23.143C-12.106,23.16 -12.106,23.176 -12.107,23.192C-12.106,23.204 -12.106,23.215 -12.107,23.226L-12.107,23.377L-12.052,23.566L-12.052,23.854C-12.052,23.876 -12.032,23.903 -12.021,23.925C-12.02,23.937 -12.02,23.948 -12.021,23.959L-12.021,24.05L-12.003,24.084L-12.003,24.111L-11.98,24.148L-11.98,24.167C-11.98,24.167 -11.98,24.205 -11.949,24.22L-11.915,24.277L-11.896,24.277C-10.672,24.68 -9.357,24.708 -8.117,24.356C-8.027,24.334 -7.933,24.334 -7.841,24.354C-7.749,24.374 -7.664,24.415 -7.591,24.473C-7.518,24.532 -7.46,24.606 -7.42,24.69C-7.38,24.775 -7.36,24.867 -7.361,24.961L-7.361,24.987C-7.364,24.995 -7.364,25.003 -7.361,25.01L-7.361,25.15L-7.384,25.191C-7.509,25.407 -7.638,25.615 -7.763,25.815L-7.947,26.094L-8.049,26.238C-8.22,26.473 -8.403,26.699 -8.597,26.915L-8.756,27.084C-8.794,27.126 -8.835,27.164 -8.877,27.205L-8.998,27.319C-9.081,27.394 -9.164,27.466 -9.251,27.534C-9.338,27.602 -9.365,27.625 -9.425,27.667C-9.486,27.708 -9.542,27.75 -9.603,27.791C-9.663,27.833 -9.779,27.905 -9.875,27.954C-9.73,28.131 -9.591,28.309 -9.463,28.494L-9.439,28.494C-5.718,29.102 -3.772,28.396 -1.164,26.93C-1.043,26.838 -0.894,26.792 -0.744,26.798C-0.593,26.803 -0.448,26.861 -0.333,26.961C-0.221,27.061 -0.145,27.197 -0.12,27.346C-0.094,27.495 -0.122,27.648 -0.197,27.78L0,27.829Z" style="fill:white;fill-rule:nonzero;"/>
        </g>
    </g>
</svg>
